<?xml version="1.0" standalone="no"?>
<!DOCTYPE svg PUBLIC "-//W3C//DTD SVG 1.0//EN" "http://www.w3.org/TR/2001/REC-SVG-20010904/DTD/svg10.dtd">
<svg xmlns="http://www.w3.org/2000/svg" xmlns:xlink="http://www.w3.org/1999/xlink" id="body_1" width="217" height="163">

<g transform="matrix(0.44467217 0 0 0.44467217 -0 61.489758)">
	<g transform="matrix(4.357299 0 0 4.357299 127.58697 -10.718954)">
        <path d="M1.54 14.59C 1.4533334 14.363334 1.41 14.05 1.41 13.65C 1.41 13.250001 1.5466666 12.063334 1.82 10.09C 2.0933332 8.123334 2.23 6.5433335 2.23 5.35C 2.23 5.0699997 2.21 4.6866665 2.17 4.2C 2.8766668 4.2400002 3.3200002 4.4066668 3.5 4.7C 3.5933335 4.8733335 3.6533334 5.036667 3.68 5.19C 3.7066667 5.3433332 3.72 5.586667 3.72 5.92C 3.72 6.246667 3.5700002 7.4900002 3.27 9.65C 2.9633334 11.810001 2.8066666 13.350001 2.8 14.27C 2.8466666 14.256667 2.9299998 14.25 3.05 14.25C 5.0699997 14.25 6.5733333 14.110001 7.56 13.83C 7.4933333 14.370001 7.3100004 14.790001 7.01 15.09C 6.703334 15.390001 6.3233337 15.540001 5.87 15.54C 5.7366667 15.540001 5.3333335 15.51 4.66 15.45C 3.98 15.389999 3.3233335 15.36 2.69 15.36C 2.0566669 15.36 1.4200001 15.42 0.78 15.54C 0.9066667 15.126667 1.1600001 14.81 1.54 14.59zM10.75 9.95C 10.483334 10.416666 10.276668 10.896667 10.13 11.39C 9.983334 11.876667 9.91 12.346666 9.91 12.8C 9.91 13.246668 10.01 13.626667 10.21 13.94C 10.410001 14.253333 10.696667 14.41 11.07 14.41C 11.596666 14.41 12.086667 14.123333 12.54 13.55C 13 12.970001 13.353333 12.2733345 13.6 11.46C 13.846667 10.639999 13.97 9.883333 13.97 9.19C 13.97 8.496667 13.943334 7.9266667 13.89 7.48C 14.110001 7.46 14.250001 7.45 14.31 7.45C 15.103334 7.45 15.500001 7.8566666 15.5 8.67C 15.500001 8.843334 15.386667 9.5633335 15.16 10.83C 14.940001 12.096666 14.830001 13.110001 14.83 13.87C 14.830001 14.630001 14.973334 15.303334 15.26 15.89C 14.673334 15.77 14.246667 15.51 13.98 15.11C 13.713333 14.716667 13.58 14.1466675 13.58 13.4C 13.58 13.266666 13.6 13.013334 13.64 12.64C 13.386667 13.526667 12.943334 14.24 12.31 14.78C 11.67 15.326668 11.046667 15.6 10.44 15.6C 9.826668 15.6 9.333334 15.366667 8.96 14.9C 8.586666 14.440001 8.4 13.803333 8.4 12.99C 8.4 12.17 8.553333 11.370001 8.86 10.59C 9.16 9.81 9.616667 9.136667 10.23 8.57C 10.836667 7.996667 11.52 7.7100005 12.28 7.71C 12.6066675 7.7100005 12.966667 7.776667 13.36 7.91C 12.806667 8.05 12.3 8.306667 11.84 8.68C 11.386667 9.053333 11.023334 9.476666 10.75 9.95zM24.84 5.7L24.85 5.87C 24.850002 6.2233334 24.716667 7.3833337 24.45 9.35C 24.183334 11.31 24.05 12.950001 24.05 14.27C 24.05 14.8566675 24.08 15.3133335 24.14 15.64C 23.913334 15.66 23.79 15.67 23.77 15.67C 23.35 15.67 23.036667 15.573334 22.83 15.38C 22.630001 15.186667 22.53 14.873334 22.53 14.44C 22.53 14.006667 22.686668 12.68 23 10.46C 23.306667 8.246667 23.46 6.666667 23.46 5.72C 23.46 4.7733335 23.396667 4.1533337 23.27 3.86C 23.57 3.9 23.846668 4.016667 24.1 4.21C 24.36 4.3966665 24.553335 4.65 24.68 4.97C 25.393335 4.59 26.186668 4.4 27.06 4.4C 27.926668 4.4 28.61 4.666667 29.11 5.2C 29.61 5.7400007 29.86 6.4000006 29.86 7.18C 29.86 8.18 29.496668 9.08 28.77 9.88C 28.043335 10.673334 27.063335 11.07 25.83 11.07C 25.550001 11.07 25.293335 11.053333 25.06 11.02L25.06 11.02L25.02 10.57C 25.646667 10.57 26.193335 10.476666 26.66 10.29C 27.126669 10.103333 27.480001 9.856667 27.72 9.55C 28.193335 8.95 28.430002 8.25 28.43 7.45C 28.430002 6.87 28.246668 6.386667 27.88 6C 27.513334 5.6133337 26.980001 5.42 26.28 5.42C 25.86 5.42 25.380001 5.5133333 24.84 5.7zM32.96 9.95C 32.68667 10.416666 32.47667 10.896667 32.33 11.39C 32.190002 11.876667 32.120003 12.346666 32.12 12.8C 32.120003 13.246668 32.22 13.626667 32.42 13.94C 32.620003 14.253333 32.90667 14.41 33.28 14.41C 33.800003 14.41 34.29 14.123333 34.75 13.55C 35.203335 12.970001 35.553333 12.2733345 35.8 11.46C 36.053333 10.639999 36.18 9.883333 36.18 9.19C 36.18 8.496667 36.15 7.9266667 36.09 7.48C 36.316666 7.46 36.456665 7.45 36.51 7.45C 37.303337 7.45 37.700005 7.8566666 37.7 8.67C 37.700005 8.843334 37.590004 9.5633335 37.37 10.83C 37.143333 12.096666 37.03 13.110001 37.03 13.87C 37.03 14.630001 37.173332 15.303334 37.46 15.89C 36.873337 15.77 36.44667 15.51 36.18 15.11C 35.913334 14.716667 35.78 14.1466675 35.78 13.4C 35.78 13.266666 35.8 13.013334 35.84 12.64C 35.586666 13.526667 35.143333 14.24 34.51 14.78C 33.876667 15.326668 33.253334 15.6 32.64 15.6C 32.02667 15.6 31.533335 15.366667 31.16 14.9C 30.786669 14.440001 30.600002 13.803333 30.6 12.99C 30.600002 12.17 30.753334 11.370001 31.06 10.59C 31.36 9.81 31.81667 9.136667 32.43 8.57C 33.043335 7.996667 33.72667 7.7100005 34.48 7.71C 34.80667 7.7100005 35.16667 7.776667 35.56 7.91C 35.006668 8.05 34.503334 8.306667 34.05 8.68C 33.590004 9.053333 33.22667 9.476666 32.96 9.95zM46.35 9.34C 46.35 9.766666 46.260002 10.523333 46.08 11.61C 45.9 12.696667 45.81 13.49 45.81 13.99C 45.81 14.483334 45.870003 14.84 45.99 15.06C 46.11 15.280001 46.316666 15.466667 46.61 15.62C 46.483334 15.633334 46.31 15.640001 46.09 15.64C 45.45667 15.640001 45.006668 15.52 44.74 15.28C 44.473335 15.04 44.340004 14.613334 44.34 14C 44.340004 13.653334 44.433334 12.956667 44.62 11.91C 44.806667 10.856667 44.9 10.083334 44.9 9.59C 44.9 8.976667 44.713333 8.67 44.34 8.67C 43.739998 8.67 43.12 9.196667 42.48 10.25C 41.84 11.303333 41.52 12.573334 41.52 14.06C 41.52 14.6466675 41.550003 15.103333 41.61 15.43C 41.363335 15.450001 41.216667 15.460001 41.17 15.46C 40.35 15.460001 39.940002 15.056667 39.94 14.25C 39.940002 14.0633335 40.04 13.346667 40.24 12.1C 40.433334 10.846667 40.53 9.85 40.53 9.11C 40.53 8.363334 40.45 7.6800003 40.29 7.06C 40.843334 7.2733335 41.230003 7.576667 41.45 7.97C 41.67 8.37 41.78 8.823334 41.78 9.33C 41.78 9.836667 41.723335 10.426667 41.61 11.1C 41.916668 10.046667 42.4 9.160001 43.06 8.44C 43.713333 7.713333 44.326668 7.3500004 44.9 7.35C 45.86667 7.3500004 46.35 8.013333 46.35 9.34zM53.06 7.76C 53.060005 8.1466675 52.98667 8.416667 52.84 8.57C 52.68667 8.716667 52.466667 8.79 52.18 8.79L52.18 8.79L51.17 8.79C 51.13 9.036667 51.033333 9.616667 50.88 10.53C 50.560005 12.263334 50.4 13.573334 50.4 14.46C 50.4 15.346666 50.466667 15.9366665 50.6 16.23C 50.066666 16.03 49.68667 15.733335 49.46 15.34C 49.24 14.940001 49.13 14.456667 49.13 13.89C 49.13 13.316667 49.163334 12.776667 49.23 12.27C 49.303333 11.763334 49.403336 11.17 49.53 10.49C 49.663338 9.803333 49.756668 9.256667 49.81 8.85C 49.276665 8.923334 48.753334 9.073334 48.24 9.3C 48.22667 9.146667 48.22 9.01 48.22 8.89C 48.22 8.443335 48.36667 8.143333 48.66 7.99C 48.960003 7.836667 49.390003 7.76 49.95 7.76C 50.01667 7.0666666 50.050003 6.55 50.05 6.21C 50.050003 5.87 50.04667 5.5966663 50.04 5.39C 50.04 5.1833334 50.04 5.03 50.04 4.93C 50.466667 4.996667 50.79667 5.186667 51.03 5.5C 51.263336 5.806667 51.38 6.2333336 51.38 6.78C 51.38 7.0600004 51.356667 7.4000006 51.31 7.8C 52.123337 7.8 52.696667 7.663334 53.03 7.39C 53.050003 7.5233335 53.060005 7.6466675 53.06 7.76zM55.69 11.1C 55.996666 10.046667 56.47 9.160001 57.11 8.44C 57.75 7.713333 58.35 7.3500004 58.91 7.35C 59.47 7.3500004 59.86667 7.5200005 60.1 7.86C 60.333336 8.2 60.450005 8.663334 60.45 9.25C 60.450005 9.83 60.360004 10.6466675 60.18 11.7C 60.000004 12.76 59.910004 13.530001 59.91 14.01C 59.910004 14.49 59.97 14.84 60.09 15.06C 60.21 15.280001 60.413334 15.466667 60.7 15.62C 60.58 15.633334 60.410004 15.640001 60.19 15.64C 59.590004 15.640001 59.146667 15.516667 58.86 15.27C 58.58 15.023334 58.44 14.6 58.44 14C 58.44 13.653334 58.533333 12.956667 58.72 11.91C 58.90667 10.856667 59.000004 10.083334 59 9.59C 59.000004 8.976667 58.783337 8.67 58.35 8.67C 58.09667 8.67 57.816666 8.803333 57.51 9.07C 57.20333 9.33 56.906666 9.6866665 56.62 10.14C 56.34 10.593333 56.103333 11.17 55.91 11.87C 55.716667 12.5633335 55.620003 13.246667 55.62 13.92C 55.620003 14.6 55.65 15.103333 55.71 15.43C 55.483334 15.450001 55.356667 15.460001 55.33 15.46C 54.89 15.460001 54.566666 15.366668 54.36 15.18C 54.146667 14.993334 54.04 14.700001 54.04 14.3C 54.04 13.906668 54.123337 13.143333 54.29 12.01C 54.783337 8.536667 55.030003 5.9000006 55.03 4.1C 55.030003 3.2866669 54.97667 2.7400002 54.87 2.46C 55.410004 2.66 55.79 2.95 56.01 3.33C 56.230003 3.7166667 56.340004 4.2433333 56.34 4.91C 56.340004 5.376667 56.24667 6.356667 56.06 7.85C 55.880005 9.343334 55.756668 10.426667 55.69 11.1zM66.28 8.08C 65.72 8.08 65.24667 8.4 64.86 9.04C 64.46667 9.6866665 64.206665 10.443334 64.08 11.31L64.08 11.31L64.47 11.31C 64.96333 11.31 65.39334 11.240001 65.76 11.1C 66.12001 10.960001 66.40001 10.780001 66.6 10.56C 66.97334 10.126667 67.16 9.64 67.16 9.1C 67.16 8.793334 67.08667 8.546667 66.94 8.36C 66.793335 8.173333 66.57333 8.08 66.28 8.08zM68.25 13.75C 67.82333 14.450001 67.35333 14.940001 66.84 15.22C 66.32667 15.500001 65.73 15.640001 65.05 15.64C 64.37667 15.640001 63.78667 15.34 63.28 14.74C 62.773335 14.1466675 62.52 13.306667 62.52 12.22C 62.52 10.986668 62.853333 9.886667 63.52 8.92C 63.846672 8.453334 64.27334 8.073334 64.8 7.78C 65.32667 7.493334 65.90666 7.3500004 66.54 7.35C 67.94 7.3500004 68.64 8.026667 68.64 9.38C 68.64 10.193334 68.32667 10.83 67.7 11.29C 67.066666 11.75 66.33667 11.98 65.51 11.98C 64.95667 11.98 64.46001 11.93 64.02 11.83C 64.013336 11.923334 64.01 12.066668 64.01 12.26C 64.01 13.913334 64.5 14.74 65.48 14.74C 66.4 14.74 67.15 14.283334 67.73 13.37C 68.07667 13.416667 68.25 13.543333 68.25 13.75zM67.97 6.3C 67.96333 6.4000006 67.91333 6.496667 67.82 6.59C 67.73334 6.6766667 67.63334 6.7333336 67.52 6.76C 67.18667 6.3400006 66.75667 5.926667 66.23 5.52C 65.70334 5.106667 65.16667 4.816667 64.62 4.65C 64.64 4.1633334 64.86667 3.7800002 65.3 3.5C 65.793335 3.6933334 66.30334 4.08 66.83 4.66C 67.356674 5.2333336 67.73667 5.78 67.97 6.3zM72.1 10.88C 72.433334 9.666667 72.83667 8.773334 73.31 8.2C 73.78333 7.626667 74.22333 7.34 74.63 7.34C 75.03667 7.34 75.34 7.4900002 75.54 7.79C 75.746666 8.096666 75.85 8.483334 75.85 8.95C 75.85 9.416667 75.729996 9.82 75.49 10.16C 75.24333 10.5 74.88667 10.67 74.42 10.67C 74.27333 10.67 74.15667 10.660001 74.07 10.64C 74.39001 10.18 74.55 9.713333 74.55 9.24C 74.55 8.906667 74.41334 8.74 74.14 8.74C 73.92667 8.74 73.7 8.863334 73.46 9.11C 73.21333 9.363334 72.979996 9.713333 72.76 10.16C 72.53333 10.613334 72.346664 11.196667 72.2 11.91C 72.04667 12.63 71.97 13.406667 71.97 14.24C 71.97 14.333334 71.99334 14.7300005 72.04 15.43C 71.8 15.450001 71.66 15.460001 71.62 15.46C 70.8 15.460001 70.39 15.056667 70.39 14.25C 70.39 14.0633335 70.490005 13.346667 70.69 12.1C 70.88334 10.846667 70.98 9.85 70.98 9.11C 70.98 8.363334 70.9 7.6800003 70.74 7.06C 71.293335 7.2733335 71.68 7.576667 71.9 7.97C 72.12 8.37 72.23 8.833333 72.23 9.36C 72.23 9.886666 72.18667 10.393333 72.1 10.88zM80.35 8.08C 79.79 8.08 79.31334 8.4 78.92 9.04C 78.53333 9.6866665 78.276665 10.443334 78.15 11.31L78.15 11.31L78.54 11.31C 79.03333 11.31 79.46333 11.240001 79.83 11.1C 80.19 10.960001 80.47 10.780001 80.67 10.56C 81.043335 10.126667 81.23 9.64 81.23 9.1C 81.23 8.793334 81.15667 8.546667 81.01 8.36C 80.863335 8.173333 80.64333 8.08 80.35 8.08zM82.32 13.75C 81.89333 14.450001 81.42334 14.940001 80.91 15.22C 80.39667 15.500001 79.8 15.640001 79.12 15.64C 78.44667 15.640001 77.85667 15.34 77.35 14.74C 76.84333 14.1466675 76.59 13.306667 76.59 12.22C 76.59 10.986668 76.92333 9.886667 77.59 8.92C 77.91667 8.453334 78.34334 8.073334 78.87 7.78C 79.39667 7.493334 79.97667 7.3500004 80.61 7.35C 82.01 7.3500004 82.71 8.026667 82.71 9.38C 82.71 10.193334 82.39667 10.83 81.77 11.29C 81.136665 11.75 80.40667 11.98 79.58 11.98C 79.02667 11.98 78.53 11.93 78.09 11.83C 78.083336 11.923334 78.08 12.066668 78.08 12.26C 78.08 13.913334 78.57001 14.74 79.55 14.74C 80.47 14.74 81.22 14.283334 81.8 13.37C 82.14667 13.416667 82.32 13.543333 82.32 13.75z" stroke="none" fill="#000000" fill-rule="nonzero" />
	</g>
	<g transform="matrix(1.2101655 0 0 1.2101655 -4.368992 -14.702727)">
        <path d="M44 46.07L44 46C 43.239975 44.657043 41.971245 43.67666 40.48 43.28L40.48 43.28L40.34 43.28C 39.526413 43.032158 38.688046 42.874542 37.84 42.809998C 35.546852 42.502663 33.35062 41.68975 31.41 40.429996C 31.068548 40.22512 30.626514 40.3228 30.403185 40.652477C 30.179855 40.982155 30.253094 41.428886 30.57 41.67C 31.211426 42.083736 31.879568 42.45455 32.57 42.78C 32.57 42.879997 32.48 42.98 32.45 43.09C 31.535597 46.308296 33.388622 49.661602 36.600002 50.6C 37.178787 50.765877 37.777916 50.85002 38.38 50.85C 40.212585 50.85963 41.945602 50.017143 43.07 48.57C 43.15657 49.57343 43.095924 50.58412 42.89 51.57C 42.810402 51.76436 42.815945 51.98319 42.90528 52.17327C 42.994617 52.36335 43.159565 52.50726 43.36 52.57C 43.4395 52.58271 43.520508 52.58271 43.600002 52.57C 43.921516 52.569763 44.207115 52.364616 44.31 52.06C 44.630527 50.717983 44.70842 49.32945 44.54 47.960003C 44.48842 47.30019 44.304787 46.65747 44 46.070004L44 46.070004L44 46.07zM39.53 44.579998C 39.56558 44.751503 39.56558 44.92849 39.53 45.1C 39.403168 45.55194 39.04487 45.901886 38.59006 46.01802C 38.135254 46.134155 37.653038 45.99883 37.32506 45.66302C 36.99708 45.327213 36.873173 44.84194 37 44.39C 37.025658 44.331142 37.055744 44.27431 37.09 44.22L37.09 44.22L37.69 44.29C 38.3175 44.336082 38.93983 44.43646 39.55 44.59zM40.469997 48.829998C 39.395126 49.38303 38.147694 49.497738 36.989998 49.149998C 34.55977 48.44811 33.15548 45.91234 33.85 43.479996L33.85 43.479996L33.85 43.359997C 34.405857 43.575188 34.973427 43.758812 35.55 43.909996L35.55 43.909996L35.55 43.969997C 35.227695 44.98474 35.508785 46.094475 36.275295 46.833424C 37.041805 47.572376 38.161083 47.81266 39.16335 47.45343C 40.16561 47.0942 40.87742 46.19762 41 45.14C 41.59987 45.4436 42.11004 45.898617 42.48 46.46C 42.136353 47.471035 41.426346 48.31662 40.489998 48.829998zM67.57 43.07C 67.57 42.96 67.49 42.87 67.45 42.76C 68.14043 42.43455 68.80857 42.063736 69.45 41.649998C 69.76689 41.40889 69.84012 40.962162 69.6168 40.632492C 69.39347 40.302822 68.951454 40.20514 68.61 40.409996C 66.66939 41.669754 64.47315 42.482666 62.18 42.789997C 61.3252 42.853 60.480038 43.010628 59.66 43.26L59.66 43.26L59.54 43.26C 58.037807 43.656597 56.760548 44.64521 56 46L56 46L56 46.05C 55.687386 46.65578 55.50353 47.319702 55.46 48C 55.29158 49.369446 55.369473 50.75798 55.69 52.1C 55.792885 52.40461 56.078484 52.609756 56.399998 52.609997C 56.645744 52.614235 56.87797 52.497795 57.021584 52.298336C 57.165195 52.098877 57.201965 51.84171 57.12 51.609997C 56.909866 50.62473 56.845848 49.613903 56.93 48.609997C 58.054398 50.057137 59.787415 50.899628 61.62 50.889996C 62.222084 50.89002 62.821213 50.80587 63.399998 50.639996C 64.96005 50.194084 66.27768 49.144066 67.06054 47.722897C 67.84341 46.301723 68.02679 44.6269 67.57 43.069996zM62.27 44.29L62.87 44.22C 62.90429 44.274292 62.934376 44.331123 62.96 44.39C 63.15289 45.077225 62.755608 45.79144 62.07 45.989998C 61.651253 46.119537 61.19531 46.02399 60.863804 45.73723C 60.5323 45.450466 60.3721 45.01303 60.44 44.579998C 61.04393 44.430958 61.659508 44.33394 62.28 44.289997zM63 49.15C 61.842304 49.49774 60.59487 49.383034 59.52 48.83C 58.577965 48.31615 57.863934 47.466454 57.52 46.45C 57.89128 45.892284 58.401337 45.44082 59 45.14C 59.01512 45.264744 59.038506 45.388344 59.07 45.51C 59.4245 46.699036 60.519245 47.512974 61.76 47.51C 62.6175 47.492134 63.419518 47.08224 63.936314 46.39773C 64.45311 45.713223 64.62768 44.82961 64.41 44L64.41 44L64.41 43.94C 64.98657 43.78882 65.55414 43.605194 66.11 43.39L66.11 43.39L66.11 43.51C 66.78768 45.923866 65.403046 48.43491 63 49.15z" stroke="none" fill="#1D1D1B" fill-rule="nonzero" />
        <path d="M46.33 44.89C 46.170002 42.64 44.33 41.21 41.18 40.97C 39.515896 40.75275 37.91897 40.176083 36.5 39.280003C 36.154823 39.050804 35.689198 39.144825 35.46 39.49C 35.2308 39.83518 35.32482 40.300804 35.67 40.530003C 37.3027 41.569725 39.14815 42.2293 41.07 42.460003C 42.42 42.56 44.7 43.030003 44.84 44.99C 44.866364 45.384575 45.194553 45.690884 45.59 45.690002L45.59 45.690002L45.64 45.690002C 46.050655 45.65805 46.3587 45.3009 46.329998 44.890003L46.329998 44.890003L46.33 44.89zM59.31 42.46C 61.231853 42.229294 63.077305 41.569717 64.71 40.53C 65.055176 40.3008 65.1492 39.835175 64.92 39.489998C 64.690796 39.14482 64.225174 39.0508 63.879997 39.28C 62.46042 40.18772 60.85985 40.77471 59.19 41C 56.079998 41.24 54.19 42.67 54.039997 44.92C 54.026287 45.11902 54.09243 45.315296 54.223797 45.465427C 54.35516 45.61556 54.540924 45.707172 54.739998 45.719997L54.739998 45.719997L54.789997 45.719997C 55.185444 45.720875 55.513634 45.414566 55.539997 45.019997C 55.679996 42.999996 57.999996 42.569996 59.309998 42.459995zM34.64 37.25C 34.806854 37.466263 35.078087 37.574715 35.348045 37.533108C 35.618008 37.4915 35.843998 37.30642 35.937996 37.049957C 36.031998 36.793495 35.979134 36.506207 35.8 36.3L35.8 36.3L32.61 32.379997C 32.443146 32.163734 32.171913 32.055283 31.901953 32.09689C 31.631994 32.138496 31.406 32.323578 31.312002 32.58004C 31.218004 32.836502 31.270866 33.12379 31.45 33.329998zM38 35.08C 38.111645 35.369343 38.389866 35.56012 38.7 35.56C 38.942223 35.557713 39.168423 35.438576 39.307335 35.24013C 39.446243 35.04169 39.48076 34.788376 39.4 34.56L39.4 34.56L37.99 30.880001C 37.89354 30.629915 37.670986 30.450287 37.406174 30.408783C 37.14136 30.36728 36.874523 30.470201 36.706173 30.678783C 36.537823 30.887365 36.493538 31.169916 36.59 31.420002zM42 35.19C 42.39187 35.191257 42.71865 34.89062 42.75 34.5L42.75 34.5L43 31.32C 43.016563 31.120945 42.95304 30.923504 42.823517 30.77145C 42.69399 30.619396 42.50916 30.525291 42.31 30.51C 42.11034 30.490625 41.91137 30.55314 41.758667 30.68322C 41.605965 30.8133 41.512615 30.9998 41.5 31.2L41.5 31.2L41.25 34.39C 41.23614 34.597427 41.309 34.801296 41.45118 34.952957C 41.59336 35.104618 41.792114 35.190464 42 35.19z" stroke="none" fill="#1D1D1B" fill-rule="nonzero" />
        <path d="M95.31 61C 91.409996 59.76 82.229996 59.87 74.77 60.21C 79.77 53.899998 79.77 47.8 78.88 44.93C 78.2 42.78 77.149994 37.36 78.49 35.25C 78.73841 34.8202 79.17656 34.534298 79.67 34.48C 81.43 34.25 81.75 32.42 82 30.96C 82.06793 30.43679 82.18512 29.921167 82.35 29.419998C 82.652084 28.879961 83.06844 28.412405 83.57 28.049997C 84.9709 26.931835 86.06506 25.476395 86.75 23.819998C 88.34 19.909998 86.21 17.979998 86.12 17.899998C 86.037 17.8372 85.941536 17.792877 85.840004 17.769999L85.840004 17.769999L85.700005 17.769999C 84.06442 17.343061 82.325264 17.607008 80.89001 18.499998C 80.21001 18.829998 79.37001 19.229998 78.130005 19.749998C 75.4598 21.095009 72.226585 20.56153 70.130005 18.429998C 65.630005 14.109999 62.460007 12.859999 50.050003 12.859999C 37.64 12.859999 34.510002 14.119999 30.050003 18.429998C 27.953426 20.56153 24.720211 21.095009 22.050003 19.749998C 21.11799 19.360395 20.19758 18.943544 19.290003 18.499998C 17.854744 17.607008 16.115583 17.343061 14.480003 17.769999L14.480003 17.769999L14.340003 17.769999C 14.23847 17.792875 14.143002 17.8372 14.060003 17.899998C 13.970003 17.979998 11.840003 19.899998 13.430003 23.819998C 14.114944 25.476397 15.209105 26.931835 16.610003 28.049997C 17.111336 28.412645 17.527655 28.88015 17.830002 29.419998C 17.93647 29.940113 17.993393 30.469141 18 31C 18.25 32.47 18.56 34.29 20.33 34.52C 20.823444 34.5743 21.261585 34.860203 21.51 35.29C 22.85 37.4 21.800001 42.82 21.12 44.97C 20.210001 47.84 20.25 53.97 25.230001 60.25C 17.77 59.91 8.590002 59.8 4.6900005 61.04C 4.295117 61.167027 4.077975 61.59012 4.2050004 61.985C 4.332026 62.379887 4.755117 62.597027 5.1500006 62.47C 9.240001 61.170002 20.150002 61.47 26.330002 61.81L26.330002 61.81L26.580002 61.81L27.230001 62.5C 19.550001 62.61 14.340001 63.14 11.730001 64.08C 11.470768 64.16558 11.278508 64.385254 11.22804 64.65355C 11.177571 64.92184 11.276866 65.19636 11.487284 65.370285C 11.697701 65.544205 11.986006 65.590065 12.240002 65.490005C 14.820002 64.560005 20.54 64.04001 28.800001 63.980007C 29.150002 64.28001 29.51 64.57001 29.87 64.86001C 23.400002 65.22001 12.870001 66.07001 8.870001 67.86001C 8.52395 68.04421 8.378136 68.463844 8.535403 68.822945C 8.692671 69.18204 9.099957 69.359436 9.470001 69.23001C 13.640001 67.40001 25.650002 66.59001 31.69 66.280014L31.69 66.280014L32.690002 67.000015L32.79 67.070015C 26.5 67.680016 22.2 68.47002 20 69.430016C 19.653946 69.61422 19.508133 70.03385 19.665401 70.39295C 19.822668 70.752045 20.229954 70.92944 20.6 70.80002C 22.67 69.890015 27.05 69.110016 33.32 68.52002C 33.291416 70.36938 33.52028 72.213715 34 74C 35.63 78.32 37.86 79.38 40.46 79.6C 40.833893 80.303406 41.35181 80.920135 41.98 81.409996C 40.582092 82.67643 39.432465 84.192314 38.59 85.88C 38.440884 86.266594 38.6334 86.700874 39.02 86.84999C 39.4066 86.999115 39.840885 86.806595 39.99 86.42C 40.260002 85.72 41.070004 84.42 43.280003 82.229996C 43.91927 82.55541 44.589214 82.81669 45.280003 83.009995C 44.794792 84.0978 44.484306 85.25538 44.360004 86.439995C 44.34911 86.63898 44.41785 86.834114 44.55106 86.98234C 44.68427 87.130554 44.87099 87.219666 45.070004 87.229996C 45.469086 87.23057 45.79872 86.91852 45.820004 86.52C 45.951782 85.42145 46.25902 84.35117 46.730003 83.35C 48.89507 83.71086 51.10494 83.71086 53.270004 83.35C 53.738426 84.352135 54.04555 85.422 54.180004 86.52C 54.201286 86.91852 54.530922 87.23057 54.930004 87.229996C 55.129017 87.219666 55.31574 87.130554 55.448948 86.98234C 55.582157 86.834114 55.650898 86.63898 55.640003 86.439995C 55.526276 85.25363 55.225906 84.09266 54.750004 82.99999C 55.440792 82.80669 56.110737 82.54541 56.750004 82.21999C 58.960003 84.409996 59.750004 85.70999 60.040005 86.409996C 60.18912 86.7966 60.623405 86.98912 61.010006 86.84C 61.396606 86.69088 61.589123 86.2566 61.440006 85.869995C 60.59754 84.18231 59.447914 82.66643 58.050007 81.399994C 58.678196 80.91013 59.196114 80.2934 59.570007 79.59C 62.170006 79.369995 64.40001 78.32 66.020004 74C 66.48711 72.22203 66.70585 70.38796 66.670006 68.55C 72.94 69.14 77.33 69.920006 79.39001 70.83C 79.63861 70.96233 79.9404 70.94424 80.17142 70.78314C 80.40243 70.62204 80.52371 70.3451 80.48546 70.06607C 80.4472 69.78705 80.255844 69.55297 79.990005 69.46C 77.770004 68.46 73.39001 67.69 66.990005 67.08L66.990005 67.08L67.79001 66.520004L68.100006 66.3C 74.100006 66.600006 86.3 67.41 90.520004 69.3C 90.89005 69.42943 91.29734 69.25202 91.454605 68.89293C 91.61187 68.53384 91.46606 68.11421 91.12 67.93C 87.060005 66.15 76.51 65.31 70.05 64.93C 70.43001 64.64333 70.8 64.350006 71.16 64.05C 79.44 64.100006 85.16 64.62 87.75 65.560005C 88.13551 65.68728 88.552315 65.484695 88.69041 65.10292C 88.82849 64.721146 88.63773 64.2988 88.26 64.15C 85.66 63.210003 80.450005 62.68 72.76 62.57L72.76 62.57L73.41 61.88L73.66 61.88C 79.810005 61.57 90.75 61.24 94.840004 62.54C 95.26527 62.66979 95.71522 62.43026 95.845 62.005C 95.97479 61.579742 95.73527 61.129787 95.310005 61L95.310005 61L95.31 61zM53.309998 79.91C 53.17602 79.67778 52.928333 79.534676 52.660236 79.534584C 52.39214 79.5345 52.14436 79.67745 52.010235 79.909584C 51.876114 80.14172 51.876022 80.42778 52.01 80.66C 52.17 80.93 52.399998 81.36 52.649998 81.86C 50.91909 82.11153 49.160904 82.11153 47.429996 81.86C 47.779995 81.15 48.059998 80.67 48.069996 80.66C 48.20397 80.42778 48.20388 80.14172 48.069756 79.909584C 47.935635 79.67745 47.687855 79.5345 47.419758 79.534584C 47.15166 79.534676 46.903973 79.67778 46.769997 79.91C 46.769997 79.97 46.35 80.64001 45.899998 81.57001C 44.533768 81.27567 43.286922 80.57911 42.32 79.57001L42.32 79.57001L44.75 79.57001C 46.942226 79.561035 48.95505 78.35718 50 76.43C 51.05445 78.3659 53.085567 79.56767 55.29 79.56L55.29 79.56L57.72 79.56C 56.75308 80.5691 55.50623 81.26566 54.14 81.56C 53.69 80.659996 53.309998 80 53.27 79.93zM70.409996 62.65L70.329994 62.710003C 69.49 63.410004 68.56 64.090004 67.649994 64.71001L67.649994 64.71001L66.869995 64.71001C 66.99999 63.000008 67.31999 61.460007 67.939995 61.000008C 68.27136 60.740437 68.32957 60.26138 68.06999 59.930008C 67.81042 59.598637 67.33136 59.540436 66.99999 59.800007C 65.99999 60.63001 65.55999 62.440006 65.369995 64.630005L65.369995 64.630005L64.759995 64.630005C 64.559555 64.619 64.36343 64.69103 64.21775 64.82915C 64.07207 64.96726 63.989693 65.15926 63.989994 65.36001C 63.984623 65.558945 64.05853 65.75186 64.19544 65.89628C 64.33236 66.040695 64.521065 66.12478 64.71999 66.130005L64.71999 66.130005L65.27999 66.130005L65.27999 66.87L65.09999 66.87C 64.6907 66.840836 64.33215 67.14184 64.28999 67.55C 64.255325 67.96107 64.559135 68.32296 64.96999 68.36L64.96999 68.36L65.17999 68.36C 65.20878 70.06029 65.0206 71.757324 64.619995 73.41C 63.209995 77.16 61.519997 77.950005 59.069996 78.07001L59.069996 78.07001L55.29 78.07001C 52.817432 78.06495 50.803566 76.0822 50.760002 73.61001C 51.10848 73.28073 51.49844 72.998344 51.920002 72.77001C 52.920002 72.13001 54.390003 71.250015 53.850002 69.98001C 53.660004 69.54001 53.79 69.33001 55.510002 68.16001L55.510002 68.16001L56.140003 67.73001C 56.886547 67.32921 57.37679 66.57499 57.440002 65.73001C 57.392853 65.076866 57.040874 64.48407 56.49 64.13001C 56.151546 63.92368 55.710613 64.02068 55.49 64.35001C 55.29204 64.68769 55.38293 65.1205 55.7 65.35001C 55.780003 65.41001 55.96 65.58002 55.97 65.72002C 55.980003 65.860016 55.800003 66.13002 55.31 66.47002L55.31 66.47002L54.690002 66.90002C 53.06 68.000015 51.780003 68.90002 52.49 70.47002C 52.41 70.72002 51.600002 71.210014 51.16 71.47002C 50.766563 71.701164 50.389057 71.958405 50.03 72.24001C 49.67094 71.958405 49.293434 71.701164 48.899998 71.47002C 48.424164 71.20931 47.97819 70.89746 47.569996 70.540016C 48.279995 68.87002 46.989994 68.000015 45.369995 66.890015L45.369995 66.890015L44.749996 66.460014C 44.269997 66.12002 44.089996 65.85001 44.089996 65.710014C 44.089996 65.570015 44.269997 65.40002 44.349995 65.34001C 44.67358 65.10691 44.758167 64.66135 44.54251 64.32588C 44.32686 63.99042 43.88639 63.882393 43.539993 64.08001C 42.989124 64.43407 42.637146 65.02686 42.589993 65.68001C 42.653202 66.52499 43.143444 67.279205 43.88999 67.68001L43.88999 67.68001L44.519993 68.11001C 46.249992 69.28001 46.36999 69.490005 46.179993 69.93001C 45.63999 71.21001 47.069992 72.08001 48.109993 72.72001C 48.513317 72.95065 48.900845 73.20789 49.269993 73.490005C 49.25898 75.98956 47.229576 78.010025 44.729992 78.01L44.729992 78.01L43.16999 78.01C 39.44999 78.1 37.16999 78.15 35.38999 73.350006C 34.990143 71.69719 34.801968 70.00027 34.82999 68.3L34.82999 68.3L35.03999 68.3C 35.30794 68.27678 35.543148 68.11237 35.65701 67.86871C 35.770874 67.625046 35.746094 67.33915 35.59201 67.11871C 35.437923 66.89827 35.17794 66.77678 34.90999 66.8L34.90999 66.8L34.76999 66.8L34.76999 66.060005L35.32999 66.060005C 35.744205 66.060005 36.07999 65.72422 36.07999 65.310005C 36.07999 64.89579 35.744205 64.560005 35.32999 64.560005L35.32999 64.560005L34.71999 64.560005C 34.52999 62.370007 34.139988 60.560005 33.08999 59.730003C 32.86313 59.546013 32.55534 59.497032 32.28257 59.601505C 32.009796 59.70598 31.813484 59.94804 31.767576 60.236504C 31.721668 60.524967 31.83314 60.81601 32.06 61C 32.68 61.49 32.97 63 33.120003 64.71L33.120003 64.71L32.170002 64.71C 31.320002 64.07 30.470001 63.399998 29.690002 62.71C 29.646841 62.6565 29.596344 62.60937 29.540003 62.57C 29.280003 62.34 29.020002 62.11 28.780003 61.88L28.780003 61.88L31.110003 62.030003L31.170002 62.030003C 31.584215 62.04657 31.933432 61.724216 31.95 61.31C 31.96657 60.89579 31.644215 60.54657 31.230001 60.530003C 31.230001 60.530003 29.660002 60.410004 27.230001 60.280003C 21.79 54.090004 21.650002 48.08 22.510002 45.36C 22.510002 45.28 24.840002 37.74 22.740002 34.43C 22.25757 33.64817 21.450357 33.12348 20.54 33C 19.92 32.92 19.720001 32 19.54 30.71C 19.454857 30.08357 19.307459 29.46718 19.1 28.869999C 18.720528 28.098936 18.16154 27.430206 17.470001 26.919998C 16.24081 25.95839 15.282798 24.693674 14.6900015 23.249998C 13.6900015 20.889997 14.460002 19.589998 14.790002 19.169998C 15.521589 19.10637 16.252726 19.297104 16.860003 19.71C 16.930002 19.769999 24.380003 25.23 27.650002 25.23L27.650002 25.23L28 25.23C 25 27.38 23.24 30.13 23.24 32.82C 23.24 33.234215 23.575787 33.57 23.99 33.57C 24.404213 33.57 24.74 33.234215 24.74 32.82C 24.74 30.01 27.34 26.93 31.369999 24.96C 32.938255 24.726131 34.454063 24.22199 35.85 23.47C 36.090096 23.34277 36.242596 23.095629 36.24864 22.823973C 36.25468 22.552319 36.11332 22.298641 35.87912 22.160862C 35.644917 22.023083 35.35451 22.022753 35.12 22.16C 32.773964 23.31695 30.17302 23.860535 27.56 23.74C 26.31 23.74 23.92 22.529999 21.699999 21.19C 24.85744 22.60915 28.564093 21.919634 31 19.460001C 35 15.640001 37.489998 14.310001 50 14.310001C 62.510002 14.310001 65 15.650002 69 19.460001C 70.52169 21.01046 72.59764 21.89193 74.77 21.910002C 75.94829 21.89265 77.11372 21.662273 78.21 21.230001C 76 22.560001 73.61 23.760002 72.369995 23.760002C 69.75698 23.880535 67.15603 23.336948 64.81 22.180002C 64.44944 21.988913 64.002266 22.12115 63.803635 22.477604C 63.605 22.834057 63.727795 23.283909 64.079994 23.490002C 65.48396 24.252052 67.010216 24.76306 68.59 25C 72.59 27 75.21999 30 75.21999 32.86C 75.21999 33.274216 75.55578 33.61 75.96999 33.61C 76.38421 33.61 76.71999 33.274216 76.71999 32.86C 76.71999 30.16 74.95 27.41 71.95999 25.27L71.95999 25.27L72.399994 25.27C 75.66999 25.27 83.119995 19.810001 83.189995 19.75C 83.79453 19.339344 84.52174 19.148714 85.24999 19.21C 85.579994 19.64 86.299995 20.939999 85.34999 23.289999C 84.757195 24.733675 83.79918 25.99839 82.56999 26.96C 81.87845 27.470207 81.319466 28.138937 80.939995 28.91C 80.73241 29.507145 80.58501 30.12354 80.49999 30.75C 80.26999 32.08 80.079994 32.96 79.49999 33.04C 78.56768 33.153706 77.73871 33.687935 77.24999 34.49C 75.13999 37.800003 77.44999 45.350002 77.479996 45.420002C 78.35 48.15 78.2 54.160004 72.759995 60.340004C 70.369995 60.470005 68.759995 60.590004 68.759995 60.590004C 68.34578 60.60657 68.02342 60.955788 68.03999 61.370003C 68.056564 61.784218 68.40578 62.10657 68.81999 62.090004L68.81999 62.090004L68.87999 62.090004L71.20999 61.940002C 70.99999 62.170002 70.689995 62.410004 70.40999 62.65z" stroke="none" fill="#1D1D1B" fill-rule="nonzero" />
        <path d="M64.77 37.53C 64.995605 37.528652 65.20862 37.425816 65.35 37.25L65.35 37.25L68.54 33.33C 68.71911 33.123795 68.77196 32.836517 68.677956 32.58007C 68.583954 32.32362 68.35797 32.138546 68.08803 32.09694C 67.81808 32.05533 67.54686 32.16376 67.38 32.38L67.38 32.38L64.189995 36.300003C 64.00961 36.52431 63.97351 36.832073 64.0971 37.092037C 64.22069 37.351997 64.48216 37.518295 64.77 37.520004L64.77 37.520004L64.77 37.53zM61.07 35.51C 61.15924 35.526558 61.250763 35.526558 61.34 35.51C 61.650135 35.510117 61.928356 35.31934 62.04 35.03L62.04 35.03L63.45 31.349998C 63.546463 31.099913 63.50218 30.817362 63.333828 30.60878C 63.165478 30.400198 62.89864 30.297276 62.633827 30.33878C 62.369015 30.380283 62.14646 30.559912 62.05 30.809998L62.05 30.809998L60.64 34.489998C 60.55203 34.68128 60.548504 34.900726 60.63029 35.094734C 60.712074 35.28874 60.87164 35.43943 61.07 35.51zM58 35.2C 58.19916 35.184708 58.38399 35.090603 58.51352 34.93855C 58.643044 34.786495 58.706566 34.589054 58.69 34.39L58.69 34.39L58.44 31.199999C 58.40686 30.785784 58.044212 30.47686 57.629997 30.509998C 57.215786 30.543137 56.90686 30.905785 56.94 31.32L56.94 31.32L57.19 34.51C 57.20529 34.709156 57.299397 34.893986 57.45145 35.023514C 57.603504 35.153038 57.800945 35.21656 58 35.199997z" stroke="none" fill="#1D1D1B" fill-rule="nonzero" />
        <path d="M39.18 69.84C 39.18 70.129944 39.077488 70.37743 38.872463 70.58246C 38.66744 70.78749 38.419952 70.89 38.13 70.89C 37.84005 70.89 37.592564 70.78749 37.38754 70.58246C 37.182514 70.37743 37.08 70.129944 37.08 69.84C 37.08 69.55005 37.182514 69.30257 37.38754 69.097534C 37.592564 68.89251 37.84005 68.78999 38.13 68.78999C 38.419952 68.78999 38.66744 68.89251 38.872463 69.097534C 39.077488 69.30257 39.18 69.55005 39.18 69.84C 39.18 69.85222 39.179787 69.864426 39.179363 69.87664" stroke="none" fill="#1D1D1B" fill-rule="nonzero" />
        <path d="M39.53 73.41C 39.53 73.69995 39.427486 73.94744 39.22246 74.152466C 39.017437 74.3575 38.76995 74.46001 38.48 74.46001C 38.190052 74.46001 37.942566 74.3575 37.737537 74.152466C 37.532516 73.94744 37.43 73.69995 37.43 73.41C 37.43 73.120056 37.532516 72.872574 37.737537 72.66754C 37.942566 72.46252 38.190052 72.36 38.48 72.36C 38.76995 72.36 39.017437 72.46252 39.22246 72.66754C 39.427486 72.872574 39.53 73.120056 39.53 73.41C 39.53 73.422226 39.529785 73.43443 39.52936 73.44665" stroke="none" fill="#1D1D1B" fill-rule="nonzero" />
        <path d="M42.27 75.76C 42.27 76.04995 42.16749 76.29744 41.962463 76.502464C 41.75744 76.7075 41.509953 76.81001 41.22 76.810005C 40.930054 76.81001 40.682564 76.7075 40.47754 76.502464C 40.272514 76.29744 40.170006 76.04995 40.170002 75.76C 40.170006 75.470055 40.272514 75.222565 40.47754 75.01754C 40.682564 74.812515 40.930054 74.71 41.22 74.71C 41.509953 74.71 41.75744 74.812515 41.962463 75.01754C 42.16749 75.222565 42.27 75.470055 42.27 75.76C 42.27 75.77222 42.26979 75.78444 42.269363 75.796646" stroke="none" fill="#1D1D1B" fill-rule="nonzero" />
        <path d="M43.19 72.11C 43.19 72.39995 43.087486 72.64744 42.88246 72.85246C 42.677437 73.057495 42.42995 73.16 42.14 73.16C 41.85005 73.16 41.602562 73.057495 41.397537 72.85246C 41.192513 72.64744 41.09 72.39995 41.09 72.11C 41.09 71.82005 41.192513 71.57257 41.397537 71.36754C 41.602562 71.16251 41.85005 71.06 42.14 71.06C 42.42995 71.06 42.677437 71.16251 42.88246 71.36754C 43.087486 71.57257 43.19 71.82005 43.19 72.11C 43.19 72.12222 43.18979 72.13443 43.18936 72.146645" stroke="none" fill="#1D1D1B" fill-rule="nonzero" />
        <path d="M46.11 73.95C 46.11 74.239944 46.007492 74.487434 45.802464 74.69246C 45.597443 74.89749 45.349953 75 45.06 75C 44.77005 75 44.522564 74.89749 44.31754 74.69246C 44.112514 74.487434 44.010002 74.239944 44.010002 73.95C 44.010002 73.66005 44.112514 73.41257 44.31754 73.207535C 44.522564 73.00251 44.77005 72.899994 45.06 72.899994C 45.349953 72.899994 45.597443 73.00251 45.802464 73.207535C 46.007492 73.41257 46.11 73.66005 46.11 73.95C 46.11 73.96222 46.10979 73.974434 46.109364 73.98664" stroke="none" fill="#1D1D1B" fill-rule="nonzero" />
        <path d="M62.92 69.84C 62.92 70.129944 62.81749 70.37743 62.61246 70.58246C 62.40744 70.78749 62.15995 70.89 61.87 70.89C 61.58005 70.89 61.332565 70.78749 61.127537 70.58246C 60.922516 70.37743 60.820004 70.129944 60.82 69.84C 60.820004 69.55005 60.922516 69.30257 61.127537 69.097534C 61.332565 68.89251 61.58005 68.78999 61.87 68.78999C 62.15995 68.78999 62.40744 68.89251 62.61246 69.097534C 62.81749 69.30257 62.92 69.55005 62.92 69.84C 62.92 69.85222 62.91979 69.864426 62.91936 69.87664" stroke="none" fill="#1D1D1B" fill-rule="nonzero" />
        <path d="M62.57 73.41C 62.57 73.69995 62.467487 73.94744 62.262463 74.152466C 62.057438 74.3575 61.80995 74.46001 61.52 74.46001C 61.230053 74.46001 60.982567 74.3575 60.77754 74.152466C 60.572517 73.94744 60.47 73.69995 60.47 73.41C 60.47 73.120056 60.572517 72.872574 60.77754 72.66754C 60.982567 72.46252 61.230053 72.36 61.52 72.36C 61.80995 72.36 62.057438 72.46252 62.262463 72.66754C 62.467487 72.872574 62.57 73.120056 62.57 73.41C 62.57 73.422226 62.569786 73.43443 62.569363 73.44665" stroke="none" fill="#1D1D1B" fill-rule="nonzero" />
        <path d="M59.829998 75.76C 59.829998 76.04995 59.727486 76.29744 59.52246 76.502464C 59.317436 76.7075 59.06995 76.81001 58.78 76.810005C 58.49005 76.81001 58.24256 76.7075 58.037537 76.502464C 57.83251 76.29744 57.730003 76.04995 57.73 75.76C 57.730003 75.470055 57.83251 75.222565 58.037537 75.01754C 58.24256 74.812515 58.49005 74.71 58.78 74.71C 59.06995 74.71 59.317436 74.812515 59.52246 75.01754C 59.727486 75.222565 59.829998 75.470055 59.829998 75.76C 59.829998 75.77222 59.82979 75.78444 59.82936 75.796646" stroke="none" fill="#1D1D1B" fill-rule="nonzero" />
        <path d="M58.91 72.11C 58.910004 72.39995 58.807487 72.64744 58.602463 72.85246C 58.397438 73.057495 58.149952 73.16 57.86 73.16C 57.570053 73.16 57.322567 73.057495 57.11754 72.85246C 56.912518 72.64744 56.810005 72.39995 56.81 72.11C 56.810005 71.82005 56.912518 71.57257 57.11754 71.36754C 57.322567 71.16251 57.570053 71.06 57.86 71.06C 58.149952 71.06 58.397438 71.16251 58.602463 71.36754C 58.807487 71.57257 58.910004 71.82005 58.91 72.11C 58.910004 72.12222 58.90979 72.13443 58.909363 72.146645" stroke="none" fill="#1D1D1B" fill-rule="nonzero" />
        <path d="M55.989998 73.95C 55.99 74.239944 55.88749 74.487434 55.68246 74.69246C 55.47744 74.89749 55.22995 75 54.94 75C 54.650047 75 54.40256 74.89749 54.197536 74.69246C 53.99251 74.487434 53.89 74.239944 53.89 73.95C 53.89 73.66005 53.99251 73.41257 54.197536 73.207535C 54.40256 73.00251 54.650047 72.899994 54.94 72.899994C 55.22995 72.899994 55.47744 73.00251 55.68246 73.207535C 55.88749 73.41257 55.99 73.66005 55.989998 73.95C 55.99 73.96222 55.989788 73.974434 55.98936 73.98664" stroke="none" fill="#1D1D1B" fill-rule="nonzero" />
        <path d="M53.56 52.5C 53.360943 52.483437 53.1635 52.54696 53.011448 52.676483C 52.859394 52.80601 52.76529 52.99084 52.75 53.19C 52.46655 55.24511 51.49756 57.144333 50 58.58C 48.504593 57.141205 47.54205 55.237274 47.27 53.18C 47.236862 52.765785 46.874214 52.45686 46.46 52.489998C 46.045788 52.523136 45.736862 52.885784 45.77 53.3C 46.13258 55.96587 47.459587 58.406425 49.5 60.16C 49.63262 60.268734 49.798504 60.328735 49.97 60.329998C 50.1415 60.328735 50.30738 60.268734 50.440002 60.16C 52.480415 58.406425 53.807423 55.96587 54.170002 53.3C 54.202187 52.91628 53.938553 52.570534 53.56 52.5zM40.37 55.2C 40.01806 55.008408 39.577682 55.127308 39.37 55.47C 39.17 55.82 38.91 56.190002 38.64 56.58C 37.3 58.52 35.28 61.460003 38.13 64.58C 38.41743 64.82173 38.839344 64.81359 39.117237 64.56096C 39.39513 64.30833 39.44332 63.8891 39.23 63.58C 37.34 61.530003 38.3 59.760002 39.87 57.480003C 40.16 57.050003 40.44 56.65 40.66 56.270004C 40.773315 56.09205 40.806442 55.874596 40.751255 55.67097C 40.696068 55.467346 40.55767 55.296383 40.37 55.200005zM60.69 55.47C 60.556026 55.237778 60.30834 55.09467 60.04024 55.094585C 59.772144 55.094498 59.524364 55.23745 59.39024 55.469585C 59.25612 55.70172 59.256027 55.987778 59.39 56.22C 59.61 56.600002 59.89 57 60.18 57.43C 61.75 59.71 62.71 61.48 60.82 63.53C 60.596535 63.717934 60.502453 64.01848 60.578873 64.300285C 60.655293 64.58209 60.888317 64.79394 61.176113 64.84323C 61.463905 64.892525 61.75415 64.77031 61.92 64.53C 64.77 61.44 62.75 58.53 61.41 56.53C 61.16 56.19 60.9 55.82 60.69 55.469997zM41.89 65C 42.017025 64.60512 41.79988 64.18203 41.405 64.05501C 41.010117 63.92798 40.587025 64.14512 40.46 64.54C 39.883274 66.395935 40.67855 68.402855 42.37 69.36C 42.728985 69.56711 43.187893 69.443985 43.395 69.085C 43.602108 68.72601 43.478985 68.267105 43.12 68.06C 42.038937 67.45834 41.52608 66.18247 41.89 65zM57.62 69.33C 59.311447 68.372856 60.106724 66.36594 59.53 64.51C 59.402973 64.11512 58.97988 63.89798 58.585 64.02501C 58.190117 64.15203 57.972973 64.57512 58.1 64.97C 58.447994 66.14331 57.93735 67.40123 56.87 68C 56.511013 68.20711 56.38789 68.666016 56.594997 69.025C 56.802105 69.38399 57.261013 69.50711 57.62 69.3zM52.88 65.15C 52.152683 65.98298 51.100826 66.46094 49.995003 66.46094C 48.88918 66.46094 47.837322 65.98298 47.11 65.15C 46.833855 64.82967 46.350323 64.79386 46.03 65.07C 45.709675 65.346146 45.673855 65.82967 45.95 66.15C 46.960712 67.32968 48.436554 68.008675 49.989998 68.008675C 51.54344 68.008675 53.019283 67.32968 54.03 66.15C 54.30614 65.82967 54.27032 65.346146 53.949997 65.07C 53.629673 64.79386 53.14614 64.82967 52.87 65.15zM30.51 50.52C 30.274288 50.363667 29.970667 50.353233 29.72478 50.493027C 29.478891 50.63282 29.332561 50.899055 29.346344 51.18157C 29.360126 51.46408 29.531675 51.71481 29.79 51.83C 32.420002 53.280003 33.56 55.420002 33.56 56.190002C 33.56 56.604218 33.895786 56.940002 34.31 56.940002C 34.724216 56.940002 35.06 56.604218 35.06 56.190002C 35.06 54.640003 33.36 52.090004 30.510002 50.520004zM70.59 50.82C 70.3924 50.466324 69.949646 50.3335 69.59 50.52C 66.72 52.09 65 54.64 65 56.2C 65 56.614216 65.335785 56.95 65.75 56.95C 66.164215 56.95 66.5 56.614216 66.5 56.2C 66.5 55.43 67.64 53.28 70.27 51.84C 70.44885 51.74836 70.58345 51.58877 70.64361 51.39702C 70.703766 51.20526 70.684456 50.997387 70.59 50.82z" stroke="none" fill="#1D1D1B" fill-rule="nonzero" />
	</g>
	<g transform="matrix(0.95590174 0 0 0.95590174 130.72757 56.52052)">
        <path d="M7.74 13.02L6.58 10.12L2.16 10.12L1.01 13.02L0.27 13.02L3.96 3.78L4.79 3.78L8.48 13.02L7.74 13.02zM2.42 9.48L6.33 9.48L4.72 5.45L4.38 4.47L4.37 4.47L4.03 5.42L2.42 9.48zM20.52 8.5L24.32 8.5L24.32 13.02L23.76 13.02L23.73 11.41C 23.476667 11.97 23.083334 12.403334 22.55 12.71C 22.01 13.01 21.343334 13.16 20.55 13.16C 19.710001 13.16 18.976667 12.966667 18.35 12.58C 17.716667 12.193334 17.23 11.64 16.89 10.92C 16.55 10.200001 16.380001 9.360001 16.38 8.4C 16.380001 7.4400005 16.556667 6.6000004 16.91 5.88C 17.256668 5.1600003 17.746668 4.606667 18.38 4.22C 19.013334 3.8333335 19.75 3.64 20.59 3.64C 21.536667 3.64 22.306667 3.8266668 22.9 4.2C 23.5 4.5733337 23.95 5.1433334 24.25 5.91L24.25 5.91L23.6 6.24C 23.386667 5.6000004 23.026669 5.1133337 22.52 4.78C 22.013334 4.4466667 21.37 4.28 20.59 4.28C 19.903334 4.28 19.296667 4.4466667 18.77 4.78C 18.25 5.1133337 17.846668 5.59 17.56 6.21C 17.266666 6.8300004 17.12 7.5600004 17.12 8.4C 17.12 9.68 17.426668 10.6866665 18.04 11.42C 18.653334 12.153334 19.5 12.52 20.58 12.52C 21.253334 12.52 21.823334 12.386667 22.29 12.12C 22.756668 11.853333 23.1 11.503334 23.32 11.07C 23.546667 10.636667 23.66 10.17 23.66 9.67L23.66 9.67L23.66 9.16L20.52 9.16L20.52 8.5zM34.5 12.38L40.33 12.38L40.33 13.02L33.8 13.02L33.8 3.78L40.11 3.78L40.11 4.42L34.5 4.42L34.5 7.99L38.93 7.99L38.93 8.65L34.5 8.65L34.5 12.38zM56.46 3.78L56.46 13.02L55.59 13.02L50.69 5.77L50.01 4.54L49.99 4.54L50.04 5.7L50.04 13.02L49.36 13.02L49.36 3.78L50.25 3.78L55.13 11.02L55.83 12.26L55.8 11.1L55.8 3.78L56.46 3.78zM73.68 10.68C 73.42 11.466667 72.96667 12.076667 72.32 12.51C 71.666664 12.943334 70.89 13.16 69.99 13.16C 69.15 13.16 68.41 12.966667 67.77 12.58C 67.13667 12.193334 66.64667 11.64 66.3 10.92C 65.96001 10.200001 65.79 9.360001 65.79 8.4C 65.79 7.4400005 65.96001 6.6000004 66.3 5.88C 66.64667 5.1600003 67.13667 4.606667 67.77 4.22C 68.41 3.8333335 69.14334 3.64 69.97 3.64C 71.816666 3.64 73.013336 4.4 73.56 5.92L73.56 5.92L72.87 6.24C 72.65667 5.586667 72.31334 5.096667 71.84 4.77C 71.36667 4.4433336 70.75667 4.28 70.01 4.28C 69.32334 4.28 68.716675 4.4466667 68.19 4.78C 67.66334 5.1133337 67.253334 5.59 66.96 6.21C 66.67333 6.8300004 66.53 7.5600004 66.53 8.4C 66.53 9.24 66.67333 9.97 66.96 10.59C 67.24 11.210001 67.64 11.686667 68.16 12.02C 68.68001 12.353334 69.29 12.52 69.99 12.52C 70.73667 12.52 71.37 12.336668 71.89 11.97C 72.41 11.603334 72.77333 11.086667 72.98 10.42L72.98 10.42L73.68 10.68zM83.44 12.38L89.28 12.38L89.28 13.02L82.74 13.02L82.74 3.78L89.05 3.78L89.05 4.42L83.44 4.42L83.44 7.99L87.88 7.99L87.88 8.65L83.44 8.65L83.44 12.38zM112.6 3.78C 114.07333 3.78 115.21001 4.17 116.01 4.95C 116.81 5.73 117.21 6.8566666 117.21 8.33C 117.21 9.843334 116.81 11.003334 116.01 11.81C 115.21001 12.616667 114.07333 13.02 112.6 13.02L112.6 13.02L109.69 13.02L109.69 3.78L112.6 3.78zM112.66 12.38C 113.89334 12.380001 114.83667 12.030001 115.49 11.33C 116.15 10.636667 116.48 9.636667 116.48 8.33C 116.48 7.076667 116.15 6.1133337 115.49 5.44C 114.83667 4.76 113.89334 4.42 112.66 4.42L112.66 4.42L110.39 4.42L110.39 12.38L112.66 12.38zM127.25 12.38L133.08 12.38L133.08 13.02L126.55 13.02L126.55 3.78L132.86 3.78L132.86 4.42L127.25 4.42L127.25 7.99L131.68 7.99L131.68 8.65L127.25 8.65L127.25 12.38zM158.07 6.54L156.21 13.02L155.34 13.02L152.46 3.78L153.22 3.78L155.78 12.45L158.2 3.78L159.01 3.78L161.43 12.46L164.02 3.78L164.74 3.78L161.85 13.02L160.99 13.02L159.12 6.54L158.61 4.54L158.59 4.54L158.07 6.54zM174.31 12.38L180.15 12.38L180.15 13.02L173.61 13.02L173.61 3.78L179.93 3.78L179.93 4.42L174.31 4.42L174.31 7.99L178.75 7.99L178.75 8.65L174.31 8.65L174.31 12.38zM189.18 13.02L189.18 3.78L192.44 3.78C 193.45334 3.78 194.21 3.99 194.71 4.41C 195.20334 4.83 195.45001 5.436667 195.45 6.23C 195.45001 6.7700005 195.30334 7.226667 195.01 7.6C 194.71667 7.9733334 194.30002 8.216667 193.76 8.33L193.76 8.33L193.76 8.34C 194.36002 8.433333 194.83334 8.676666 195.18 9.07C 195.53334 9.463333 195.71002 9.95 195.71 10.53C 195.71002 11.323334 195.42668 11.9366665 194.86 12.37C 194.29333 12.803333 193.48666 13.02 192.44 13.02L192.44 13.02L189.18 13.02zM189.88 8.04L192.46 8.04C 193.96 8.04 194.71 7.436667 194.71 6.23C 194.71 5.0233335 193.96 4.42 192.46 4.42L192.46 4.42L189.88 4.42L189.88 8.04zM189.88 12.38L192.58 12.38C 193.36667 12.380001 193.96 12.220001 194.36 11.9C 194.76001 11.58 194.96002 11.123334 194.96 10.53C 194.96002 9.923333 194.76001 9.463333 194.36 9.15C 193.96 8.836667 193.36667 8.68 192.58 8.68L192.58 8.68L189.88 8.68L189.88 12.38zM219.32 3.78C 220.8 3.78 221.93666 4.17 222.73 4.95C 223.53 5.73 223.93 6.8566666 223.93 8.33C 223.93 9.843334 223.53 11.003334 222.73 11.81C 221.93666 12.616667 220.8 13.02 219.32 13.02L219.32 13.02L216.41 13.02L216.41 3.78L219.32 3.78zM219.38 12.38C 220.61334 12.380001 221.56 12.030001 222.22 11.33C 222.87334 10.636667 223.20001 9.636667 223.2 8.33C 223.20001 7.076667 222.87334 6.1133337 222.22 5.44C 221.56 4.76 220.61334 4.42 219.38 4.42L219.38 4.42L217.11 4.42L217.11 12.38L219.38 12.38zM233.97 12.38L239.81 12.38L239.81 13.02L233.27 13.02L233.27 3.78L239.58 3.78L239.58 4.42L233.97 4.42L233.97 7.99L238.41 7.99L238.41 8.65L233.97 8.65L233.97 12.38zM251.69 3.64C 253.43001 3.64 254.59334 4.32 255.18 5.68L255.18 5.68L254.58 6.17C 254.34666 5.51 253.99667 5.03 253.53 4.73C 253.07 4.4300003 252.46333 4.28 251.71 4.28C 251.16335 4.28 250.69 4.366667 250.29 4.54C 249.89001 4.706667 249.58667 4.9333334 249.38 5.22C 249.16669 5.5133333 249.06001 5.84 249.06 6.2C 249.06001 6.5533333 249.15001 6.846667 249.33 7.08C 249.50334 7.3133335 249.80334 7.5133333 250.23 7.68C 250.65668 7.84 251.24335 7.9866667 251.99 8.12C 253.19 8.326667 254.04333 8.626667 254.55 9.02C 255.05002 9.406668 255.30002 9.946668 255.3 10.64C 255.30002 11.133334 255.15668 11.573334 254.87 11.96C 254.58334 12.34 254.17668 12.633333 253.65 12.84C 253.11668 13.053333 252.51001 13.16 251.83 13.16C 250.86334 13.16 250.04669 12.966667 249.38 12.58C 248.70667 12.193334 248.25 11.65 248.01 10.95L248.01 10.95L248.63 10.47C 248.81668 11.136667 249.19 11.643333 249.75 11.99C 250.31668 12.343334 251.0167 12.52 251.85 12.52C 252.65002 12.52 253.30334 12.3566675 253.81 12.03C 254.32333 11.703334 254.58 11.253334 254.58 10.68C 254.58 10.1866665 254.37 9.796667 253.95 9.51C 253.53668 9.216667 252.81668 8.983334 251.79 8.81C 250.92334 8.656668 250.23668 8.473333 249.73 8.26C 249.23 8.046667 248.87 7.78 248.65 7.46C 248.43001 7.1466665 248.32 6.75 248.32 6.27C 248.32 5.796667 248.45668 5.36 248.73 4.96C 249.00334 4.5533333 249.39667 4.2333336 249.91 4C 250.41669 3.7600002 251.01001 3.64 251.69 3.64zM265.2 3.78L265.2 13.02L264.5 13.02L264.5 3.78L265.2 3.78zM278.67 8.5L282.46 8.5L282.46 13.02L281.9 13.02L281.88 11.41C 281.62668 11.97 281.23 12.403334 280.69 12.71C 280.15668 13.01 279.49335 13.16 278.7 13.16C 277.86002 13.16 277.12335 12.966667 276.49 12.58C 275.86334 12.193334 275.38 11.64 275.04 10.92C 274.7 10.200001 274.53 9.360001 274.53 8.4C 274.53 7.4400005 274.70334 6.6000004 275.05 5.88C 275.40332 5.1600003 275.89667 4.606667 276.53 4.22C 277.16333 3.8333335 277.90002 3.64 278.74 3.64C 279.68 3.64 280.45 3.8266668 281.05 4.2C 281.65002 4.5733337 282.09668 5.1433334 282.39 5.91L282.39 5.91L281.75 6.24C 281.53668 5.6000004 281.17667 5.1133337 280.67 4.78C 280.15668 4.4466667 279.51334 4.28 278.74 4.28C 278.0467 4.28 277.44 4.4466667 276.92 4.78C 276.40002 5.1133337 275.99335 5.59 275.7 6.21C 275.41333 6.8300004 275.27002 7.5600004 275.27 8.4C 275.27002 9.68 275.57666 10.6866665 276.19 11.42C 276.7967 12.153334 277.64334 12.52 278.73 12.52C 279.39667 12.52 279.96335 12.386667 280.43 12.12C 280.89667 11.853333 281.24335 11.503334 281.47 11.07C 281.69666 10.636667 281.81 10.17 281.81 9.67L281.81 9.67L281.81 9.16L278.67 9.16L278.67 8.5zM299.04 3.78L299.04 13.02L298.17 13.02L293.27 5.77L292.59 4.54L292.57 4.54L292.61 5.7L292.61 13.02L291.94 13.02L291.94 3.78L292.82 3.78L297.71 11.02L298.41 12.26L298.38 11.1L298.38 3.78L299.04 3.78z" stroke="none" fill="#000000" fill-rule="nonzero" />
	</g>
</g>
</svg>